<?xml version="1.0" standalone="no"?>
<!DOCTYPE svg PUBLIC "-//W3C//DTD SVG 20010904//EN"
 "http://www.w3.org/TR/2001/REC-SVG-20010904/DTD/svg10.dtd">
<svg version="1.0" xmlns="http://www.w3.org/2000/svg"
 width="4000.000000pt" height="2250.000000pt" viewBox="0 0 4000.000000 2250.000000"
 preserveAspectRatio="xMidYMid meet">

<g transform="translate(0.000000,2250.000000) scale(0.100000,-0.100000)"
fill="#000000" stroke="none">
<path d="M15980 18744 c-129 -12 -327 -38 -420 -55 -1337 -253 -2434 -1207
-2865 -2492 -60 -178 -55 -169 -178 -324 -67 -85 -94 -113 -106 -108 -9 4 -52
16 -96 27 -44 12 -83 24 -87 27 -4 3 -21 101 -38 216 -17 116 -33 222 -36 238
l-6 27 -126 0 -127 0 -35 -242 -35 -241 -85 -22 c-47 -12 -94 -24 -105 -28
-17 -5 -44 25 -169 184 -82 104 -151 189 -154 189 -2 0 -53 -28 -113 -62 -79
-45 -108 -66 -104 -78 3 -8 43 -109 89 -225 l85 -210 -78 -78 -77 -78 -225 89
-224 90 -31 -50 c-48 -77 -99 -176 -94 -181 3 -2 89 -70 191 -150 l186 -147
-24 -81 c-12 -45 -23 -89 -23 -100 0 -10 -3 -20 -7 -22 -5 -3 -105 -19 -223
-36 -118 -17 -225 -34 -237 -36 -22 -5 -23 -9 -23 -133 l0 -127 242 -35 242
-35 12 -60 c7 -33 20 -79 28 -103 l15 -42 -189 -151 c-105 -83 -190 -154 -190
-159 0 -7 119 -220 123 -220 1 0 103 40 227 89 l225 89 75 -76 c41 -41 74 -80
72 -86 -2 -8 -126 -325 -169 -432 -3 -10 197 -134 217 -134 5 0 76 86 159 190
83 105 156 188 161 185 6 -3 52 -17 102 -30 l93 -23 35 -241 34 -241 131 0
132 0 33 236 c31 212 36 237 55 244 39 15 186 53 189 49 3 -2 70 -87 151 -189
81 -102 150 -184 154 -183 4 1 46 24 94 52 l86 49 67 -116 c341 -598 827
-1082 1426 -1421 69 -39 128 -71 131 -71 3 0 1 15 -4 32 -24 85 -3 169 53 211
85 65 301 76 448 23 41 -15 81 -28 89 -29 11 -2 29 81 82 382 37 211 70 385
72 388 3 2 58 -7 123 -21 200 -41 297 -50 524 -50 418 1 734 77 1125 269 245
120 443 256 622 428 72 69 83 76 91 60 6 -10 38 -101 72 -203 35 -102 65 -190
67 -196 2 -6 -19 -16 -51 -22 -81 -16 -153 -57 -221 -126 -114 -115 -175 -274
-178 -468 -1 -60 -3 -108 -3 -108 -1 0 -12 28 -24 63 -28 76 -31 79 -52 63
-15 -11 -11 -25 42 -156 135 -338 273 -586 420 -754 28 -32 49 -63 47 -70 -2
-6 -20 -19 -41 -30 -85 -42 -321 -27 -460 29 -45 18 -62 21 -68 12 -13 -20
-10 -23 40 -45 160 -74 463 -82 543 -15 45 39 39 70 -28 150 -63 75 -173 231
-173 247 0 5 10 0 23 -11 97 -88 267 -125 398 -87 114 33 232 139 295 265 34
68 45 81 143 156 728 562 1230 1402 1387 2323 29 165 30 212 15 400 -14 172
-14 300 0 526 12 177 11 183 -15 338 -234 1353 -1181 2467 -2476 2914 -244 84
-487 140 -772 178 -108 14 -615 27 -718 18z m-3736 -3279 c48 -14 117 -40 154
-59 117 -60 105 -16 107 -397 1 -251 6 -364 18 -457 20 -143 61 -364 81 -439
l14 -52 -37 -34 c-135 -122 -323 -201 -508 -214 -394 -26 -768 249 -869 642
-25 96 -26 304 -1 394 46 168 102 265 227 392 139 141 291 221 475 249 95 14
241 3 339 -25z m5714 -2708 c69 -288 109 -652 100 -908 -5 -137 -5 -138 15
-127 39 21 202 121 245 150 46 32 52 28 22 -17 -64 -98 -184 -178 -284 -190
-215 -27 -447 173 -522 450 -25 94 -30 268 -9 362 44 202 169 355 325 397 30
8 60 15 66 15 5 1 25 -59 42 -132z"/>
<path d="M17610 12500 c-11 -11 -20 -27 -20 -35 0 -20 108 -315 121 -332 26
-31 99 -5 99 35 0 9 -25 85 -55 167 -65 180 -95 215 -145 165z"/>
<path d="M31070 18554 c-294 -25 -476 -54 -695 -111 -506 -130 -967 -361
-1392 -699 -131 -104 -458 -433 -567 -569 -358 -449 -609 -980 -726 -1535 -17
-78 -29 -144 -28 -145 71 -58 232 -195 288 -245 l75 -67 185 159 c670 576
1119 827 1635 914 141 24 434 24 579 0 146 -24 326 -74 465 -131 88 -35 117
-43 123 -33 4 7 203 308 441 668 l434 655 -33 37 c-37 41 -49 86 -42 159 9 91
88 159 185 159 63 0 99 -13 137 -48 38 -36 56 -81 56 -142 0 -65 -18 -108 -63
-147 -40 -35 -83 -47 -152 -41 l-46 3 -435 -657 c-239 -362 -437 -664 -439
-671 -3 -7 39 -35 107 -72 142 -76 317 -190 483 -315 119 -89 429 -344 550
-452 l49 -45 171 147 c93 80 205 174 247 208 l77 63 10 -38 c21 -76 50 -233
56 -295 l6 -63 -126 -105 c-69 -58 -136 -116 -149 -130 l-24 -25 159 -135 159
-135 -6 -65 c-5 -61 -26 -206 -40 -292 -4 -21 -10 -38 -15 -38 -10 0 -247 194
-403 330 l-122 107 -54 -50 c-108 -97 -407 -344 -527 -435 -395 -298 -736
-474 -1077 -557 -55 -14 -101 -24 -102 -22 -1 1 -14 45 -28 98 -14 53 -37 127
-51 164 -14 37 -24 68 -23 69 2 1 56 15 120 30 135 33 297 94 310 116 4 8 111
322 238 697 l229 682 -27 21 c-31 25 -237 150 -246 150 -3 0 -6 -30 -6 -67 0
-119 -74 -226 -183 -268 l-46 -17 -212 -635 -211 -634 -57 99 c-32 55 -68 113
-80 131 l-23 31 180 533 180 532 -38 43 c-100 112 -93 270 17 381 30 29 53 55
51 56 -9 8 -186 46 -236 51 l-58 6 -109 -318 c-59 -176 -155 -459 -212 -631
l-104 -312 -97 65 c-53 36 -98 66 -99 68 -2 1 81 252 182 557 102 304 185 560
185 567 0 14 -51 10 -180 -15 -97 -18 -272 -71 -286 -86 -6 -7 -73 -196 -149
-422 -75 -225 -141 -414 -145 -419 -8 -8 -220 42 -220 53 0 4 47 148 105 321
58 173 105 318 105 323 0 11 -37 -11 -205 -121 -152 -99 -306 -215 -498 -375
l-137 -114 -73 -7 c-183 -18 -439 -85 -604 -160 l-78 -36 48 45 48 44 -38 34
c-60 55 -100 87 -107 87 -3 0 -6 -53 -6 -118 l0 -118 -93 -62 c-239 -158 -397
-341 -492 -573 -19 -46 -35 -90 -35 -96 0 -7 -37 -37 -82 -67 -87 -56 -180
-144 -231 -217 -154 -225 -216 -568 -168 -925 7 -50 -5 -143 -22 -171 -3 -5
-20 -110 -39 -233 -33 -224 -33 -227 -32 -575 1 -192 5 -381 10 -420 8 -60 5
-86 -18 -189 -67 -296 -108 -633 -108 -893 0 -84 -2 -153 -6 -153 -3 0 -42 33
-87 73 -339 301 -812 572 -1261 722 -292 97 -636 168 -796 163 -128 -3 -561
-3 -740 2 -164 4 -315 -18 -577 -84 -1051 -265 -1938 -975 -2430 -1946 -38
-74 -78 -159 -91 -189 l-22 -54 50 6 c64 8 115 -7 304 -89 271 -118 386 -139
710 -132 l203 4 66 48 67 47 -17 32 c-9 18 -73 88 -143 157 -71 70 -137 144
-149 167 -28 57 -29 141 -1 171 25 26 26 26 190 -30 317 -109 575 -248 720
-389 57 -55 619 -675 695 -767 33 -40 30 -55 -26 -142 -56 -88 -337 -366 -474
-468 -104 -78 -213 -142 -241 -142 -14 0 -40 31 -207 242 -83 105 -94 116
-117 110 -14 -4 -153 -7 -310 -7 -222 0 -311 4 -400 18 -220 33 -424 94 -580
172 -143 72 -354 229 -474 354 -30 30 -53 46 -57 40 -3 -6 34 -75 84 -152 203
-318 488 -856 685 -1293 371 -824 667 -1698 811 -2397 17 -81 31 -150 31 -152
0 -8 185 -118 303 -180 408 -214 842 -346 1337 -407 120 -15 686 -16 789 -2
l64 9 -79 32 c-163 67 -327 187 -442 324 -58 71 -1617 1815 -1693 1894 l-28
30 52 1 c130 1 439 199 817 523 161 138 496 470 601 596 170 203 269 362 269
431 0 20 4 34 8 32 5 -1 179 -190 387 -418 208 -228 382 -415 386 -415 4 0
355 492 781 1094 838 1186 849 1201 1020 1314 97 64 185 110 191 99 3 -4 21
-50 42 -102 81 -206 286 -570 321 -570 32 0 22 32 -40 126 -82 126 -172 298
-230 441 -25 61 -46 116 -46 121 0 25 172 69 332 85 l119 12 -54 85 c-124 198
-286 404 -467 593 l-103 108 6 237 c3 153 13 295 27 402 21 157 65 408 73 417
3 2 8 -22 12 -54 3 -32 20 -125 36 -206 98 -496 257 -963 486 -1423 l84 -170
87 -17 c87 -16 206 -50 229 -65 9 -5 8 -23 -2 -72 -38 -183 -71 -559 -58 -671
l5 -46 360 72 c241 49 361 69 363 61 28 -102 28 -89 10 -1071 l-4 -260 234
240 234 240 33 -33 c24 -24 30 -36 23 -46 -6 -8 -126 -134 -267 -280 l-258
-265 0 -274 0 -273 38 -13 c73 -26 146 -75 255 -174 218 -196 391 -322 535
-390 66 -31 71 -32 235 -35 l167 -4 0 1306 c0 1038 3 1306 13 1305 6 0 156
-19 332 -43 272 -36 323 -41 340 -29 49 33 244 225 331 326 173 201 294 404
345 580 20 66 21 83 12 120 -6 23 -10 43 -9 45 2 1 239 -38 527 -88 1175 -203
1274 -223 1413 -280 140 -59 291 -163 398 -275 37 -38 500 -612 1028 -1275
529 -663 966 -1209 972 -1215 6 -6 8 231 5 665 -4 733 -5 741 -67 1056 -65
330 -159 603 -315 919 -185 375 -382 655 -666 949 -406 421 -910 745 -1454
935 l-120 42 -62 111 c-35 61 -63 118 -63 127 0 12 25 24 93 45 561 171 1059
463 1487 873 435 416 771 953 954 1522 24 75 47 151 51 169 l7 32 -701 0 -701
0 0 965 0 965 691 0 c653 0 690 1 685 18 -3 9 -15 49 -27 87 -37 122 -137 367
-208 511 -554 1118 -1637 1882 -2876 2030 -124 14 -539 26 -635 18z m2250
-914 l0 -70 -415 0 -415 0 0 70 0 70 415 0 415 0 0 -70z m-520 -245 l0 -65
-155 0 -155 0 0 65 0 65 155 0 155 0 0 -65z m-5566 -4550 c137 -182 308 -314
516 -396 47 -18 86 -34 87 -34 6 -2 -60 -310 -91 -427 -60 -227 -125 -397
-211 -548 -30 -54 -31 -74 -5 -100 54 -54 310 21 443 131 34 28 37 33 23 47
-13 13 -18 12 -46 -11 -70 -59 -284 -147 -357 -147 -36 0 -39 28 -9 79 104
175 197 456 266 801 18 85 33 156 34 158 2 1 59 -7 127 -19 107 -18 151 -21
319 -16 213 5 343 24 548 79 151 41 191 43 359 23 163 -19 303 -48 393 -81 36
-13 67 -20 71 -16 3 4 13 32 22 63 22 74 80 139 158 178 82 41 156 54 267 49
81 -5 102 -10 160 -39 47 -24 75 -47 97 -77 28 -41 30 -49 30 -135 -1 -106
-17 -160 -96 -327 -133 -279 -331 -493 -481 -518 l-43 -8 -7 -69 c-33 -335
-84 -1171 -96 -1575 l-7 -235 -65 -42 c-157 -103 -445 -220 -625 -254 -90 -17
-106 -27 -161 -110 -90 -136 -205 -433 -278 -719 -24 -94 -36 -127 -40 -110
-3 14 -15 86 -27 160 -79 494 -215 751 -432 815 l-42 12 0 374 c0 206 3 386 7
401 3 15 2 28 -3 30 -5 2 -13 69 -18 149 l-10 146 -99 99 c-111 111 -185 207
-279 363 -315 522 -509 1216 -529 1896 l-6 180 42 -75 c23 -41 65 -106 94
-145z m112 13 c263 -191 639 -289 1329 -346 l210 -18 -105 -22 c-208 -45 -299
-56 -495 -56 -246 -1 -396 28 -585 112 -169 75 -367 248 -465 407 l-19 30 35
-31 c19 -17 61 -52 95 -76z m-4201 -4598 c3 -5 -1 -10 -9 -10 -9 0 -16 5 -16
10 0 6 4 10 9 10 6 0 13 -4 16 -10z m508 -603 c-22 -122 -177 -329 -449 -601
-385 -386 -826 -709 -987 -724 -56 -5 -27 -31 -352 318 -235 252 -242 260
-226 260 6 0 17 -13 26 -30 13 -25 21 -30 53 -30 217 2 1055 704 1375 1151 50
71 97 163 97 192 0 11 97 -90 235 -243 221 -247 234 -263 228 -293z"/>
<path d="M27547 12252 c-14 -16 -17 -44 -17 -189 0 -152 2 -172 18 -186 22
-20 53 -22 70 -5 8 8 12 66 12 193 0 127 -4 185 -12 193 -18 18 -53 15 -71 -6z"/>
<path d="M28426 12254 c-13 -13 -16 -45 -16 -193 0 -187 3 -201 46 -201 49 0
54 18 54 205 0 184 -5 205 -50 205 -10 0 -26 -7 -34 -16z"/>
<path d="M28512 11269 c-7 -11 -10 -23 -8 -28 6 -10 -39 -23 -154 -47 -97 -20
-310 -24 -351 -6 -19 8 -29 8 -38 -1 -38 -38 29 -60 184 -60 107 0 239 19 339
49 28 8 52 10 55 6 13 -19 40 -21 46 -3 7 25 -8 61 -37 88 -23 22 -24 22 -36
2z"/>
<path d="M31293 14824 c-155 -466 -178 -542 -160 -532 126 66 456 318 734 560
l112 97 -107 94 c-116 101 -318 269 -367 304 l-31 21 -181 -544z"/>
<path d="M7130 13640 c-184 -82 -347 -155 -362 -162 l-27 -13 114 -259 c63
-142 116 -265 117 -273 2 -9 -17 -23 -52 -38 -30 -13 -55 -27 -55 -32 0 -21
139 -323 149 -323 8 0 964 416 972 424 1 0 -27 66 -62 146 -35 80 -68 155 -74
167 l-9 23 -61 -27 c-33 -14 -62 -24 -64 -22 -1 2 -56 124 -120 272 -65 147
-121 267 -125 266 -3 -1 -157 -68 -341 -149z"/>
<path d="M16620 12565 c-187 -52 -337 -197 -405 -392 -29 -83 -45 -176 -45
-264 0 -65 -1 -67 -27 -72 -16 -3 -207 -24 -426 -48 l-398 -43 20 -20 20 -20
410 45 410 45 7 -31 c55 -271 217 -466 453 -547 54 -18 85 -22 167 -21 176 3
304 60 420 186 239 260 229 712 -21 994 -58 66 -174 144 -256 173 -84 29 -249
37 -329 15z m290 -53 c126 -44 229 -120 303 -224 99 -140 140 -265 141 -428 0
-191 -57 -335 -183 -460 -122 -121 -238 -168 -380 -156 -210 19 -387 146 -494
353 -58 112 -79 199 -80 323 -2 408 352 709 693 592z"/>
<path d="M16632 12188 c-7 -7 -12 -23 -12 -37 0 -35 106 -322 122 -332 37 -24
78 -2 78 41 0 26 -96 305 -113 328 -12 15 -59 16 -75 0z"/>
<path d="M7785 12550 c-110 -18 -196 -62 -272 -142 -95 -102 -139 -224 -130
-368 17 -300 291 -502 589 -436 144 32 253 119 321 255 39 79 42 89 45 187 4
84 0 116 -17 172 -53 174 -200 302 -381 331 -72 12 -83 12 -155 1z m160 -181
c59 -16 132 -66 165 -113 112 -164 55 -382 -121 -461 -55 -24 -71 -27 -143
-23 -131 7 -210 60 -264 176 -21 48 -24 64 -20 140 5 96 18 130 75 193 75 83
198 118 308 88z"/>
<path d="M5003 11003 c3 -137 13 -322 22 -413 14 -152 53 -472 58 -476 1 -1
48 28 104 65 249 164 531 280 833 341 l84 17 41 68 c39 67 136 176 184 208 21
14 28 38 62 214 21 109 39 204 39 211 0 9 -150 12 -717 12 l-716 0 6 -247z"/>
<path d="M9003 11233 c3 -10 202 -463 442 -1008 240 -544 438 -996 439 -1003
0 -7 -41 -31 -94 -54 -290 -126 -1099 -483 -1185 -522 -55 -25 -104 -46 -110
-46 -5 0 -163 348 -349 773 -187 424 -351 797 -365 828 l-26 56 -164 -73 -164
-72 -27 -79 c-81 -243 -277 -411 -534 -460 -155 -29 -336 3 -475 84 -63 37
-173 135 -203 181 l-16 23 -86 -20 c-165 -39 -341 -114 -501 -213 -89 -55
-237 -173 -303 -241 l-43 -44 55 -189 c226 -783 581 -1523 1054 -2200 l106
-152 66 -4 c78 -4 177 -48 226 -100 18 -18 70 -89 117 -158 82 -122 306 -442
495 -709 105 -148 169 -209 457 -440 486 -390 1017 -717 1579 -972 l129 -59
670 2 670 3 68 215 c65 207 251 737 386 1100 362 975 762 1827 1094 2330 l89
134 0 1553 0 1553 -1751 0 c-1663 0 -1751 -1 -1746 -17z m1877 -3393 l0 -70
-1525 0 -1525 0 0 70 0 70 1525 0 1525 0 0 -70z m-1985 -141 c22 -6 54 -22 72
-35 17 -13 128 -162 247 -331 118 -170 272 -389 342 -488 186 -264 294 -426
300 -452 4 -13 4 -48 2 -78 -6 -72 -44 -126 -111 -160 l-51 -25 -435 0 c-275
0 -450 4 -474 11 -53 14 -122 84 -136 136 -8 30 -11 227 -9 667 l3 624 30 43
c32 46 77 77 128 89 45 11 48 11 92 -1z"/>
<path d="M8853 6513 c-34 -6 -81 -59 -89 -98 -13 -73 21 -137 86 -156 78 -24
148 13 171 89 10 35 9 48 -6 88 -14 37 -25 50 -59 65 -40 18 -59 20 -103 12z"/>
<path d="M9610 6380 c-24 -24 -26 -57 -4 -88 11 -16 25 -22 54 -22 29 0 43 6
54 22 35 49 7 108 -50 108 -21 0 -42 -8 -54 -20z"/>
<path d="M17375 11189 c-64 -32 -203 -69 -256 -69 -43 0 -49 -2 -49 -21 0 -21
3 -22 88 -16 76 5 144 21 245 59 26 10 34 31 19 55 -5 8 -18 6 -47 -8z"/>
<path d="M6635 10627 c-176 -59 -275 -195 -275 -377 0 -118 61 -243 147 -303
84 -58 131 -72 238 -72 91 0 106 3 165 31 82 39 141 98 182 182 31 62 33 74
33 167 0 87 -3 107 -27 157 -37 80 -107 152 -186 190 -55 27 -77 32 -151 35
-52 2 -102 -2 -126 -10z"/>
<path d="M15416 9629 c12 -13 380 -433 819 -934 439 -500 808 -921 821 -935
l22 -25 71 -1875 c39 -1031 74 -1930 77 -1997 l7 -123 38 0 39 0 0 78 c0 42
-34 945 -74 2007 l-74 1930 179 922 c98 507 179 925 179 927 0 3 -17 -6 -37
-20 -72 -49 -236 -126 -352 -164 -525 -175 -1072 -117 -1621 172 -84 44 -109
54 -94 37z"/>
<path d="M8583 9529 c-87 -55 -81 -198 10 -245 71 -37 162 -12 198 56 37 68
10 163 -54 193 -48 23 -115 21 -154 -4z"/>
<path d="M13390 6801 c0 -4 -52 -687 -115 -1516 -63 -830 -115 -1516 -115
-1527 0 -10 6 -18 14 -18 10 0 17 15 20 43 3 23 55 699 116 1502 60 803 111
1475 113 1493 2 25 -1 32 -15 32 -10 0 -18 -4 -18 -9z"/>
<path d="M6433 6566 c-59 -19 -99 -51 -129 -101 -56 -96 -39 -220 40 -293 55
-50 100 -65 186 -60 57 3 77 9 112 33 112 78 132 261 40 358 -60 64 -166 90
-249 63z"/>
<path d="M29443 6108 c-32 -41 -35 -58 -14 -102 39 -80 55 -227 55 -521 0
-291 -15 -433 -53 -521 l-20 -44 -54 0 -55 0 5 -67 c20 -324 44 -503 87 -637
28 -90 48 -116 87 -116 69 0 125 199 161 565 18 194 15 742 -5 932 -40 357
-91 523 -163 523 -12 0 -26 -6 -31 -12z"/>
<path d="M30200 6102 c28 -13 40 -29 58 -76 78 -195 119 -665 101 -1141 -9
-244 -20 -359 -49 -516 -36 -193 -74 -269 -133 -269 -29 0 -29 0 -22 -47 13
-90 65 -235 95 -265 l28 -28 -494 0 -494 0 0 580 0 580 -317 0 c-300 0 -324 2
-425 24 -175 40 -294 105 -430 234 l-58 55 0 -736 0 -737 -282 -3 c-156 -1
348 -3 1120 -5 1218 -2 1405 0 1418 13 34 34 73 200 98 415 69 608 32 1566
-72 1848 -15 41 -21 47 -49 50 -21 2 -34 10 -38 23 -5 15 -16 19 -48 19 l-42
0 35 -18z"/>
<path d="M25615 4312 c-33 -47 -64 -92 -68 -99 -7 -11 108 49 126 66 4 5 7 33
5 64 l-3 55 -60 -86z"/>
<path d="M34925 3760 c-26 -7 -22 -8 23 -9 29 0 52 3 52 9 0 11 -31 11 -75 0z"/>
</g>
</svg>
